<svg xmlns="http://www.w3.org/2000/svg" width="64" height="64" viewBox="0 0 64 64">
  <defs>
    <linearGradient id="g" x1="0" y1="0" x2="1" y2="1">
      <stop offset="0%" stop-color="#38bdf8" />
      <stop offset="100%" stop-color="#0ea5e9" />
    </linearGradient>
  </defs>
  <rect width="64" height="64" rx="14" fill="#0b1120"/>
  <path d="M32 8C21 15 16 19 8 22c0 18 10 30 24 34c14-4 24-16 24-34c-8-3-13-7-24-14z" fill="url(#g)"/>
  <circle cx="32" cy="32" r="6" fill="#0b1120"/>
</svg>

<?xml version="1.0" encoding="utf-8"?>
<svg xmlns="http://www.w3.org/2000/svg" viewBox="0 4.004 354.329 354.33" width="354.329px" height="354.33px">
  <path class="primary" d="M 354.329 60.371 C 353.173 66.288 353.173 135.275 353.173 135.275 L 353.173 204.26 C 353.33 216.669 351.112 228.438 346.739 239.715 C 342.361 250.995 335.839 261.787 327.401 272.243 C 318.954 282.699 309.037 292.203 297.533 300.708 C 286.03 309.208 272.94 316.71 258.152 323.178 L 219.207 340.466 L 180.268 357.754 C 179.657 358.17 179.45 358.306 179.172 358.329 C 178.892 358.354 178.544 358.276 177.682 358.276 C 176.79 358.276 176.408 358.346 176.066 358.306 C 175.714 358.268 175.411 358.111 174.683 357.673 L 135.831 340.425 L 96.975 323.178 C 82.182 316.71 69.093 309.208 57.598 300.708 C 46.096 292.203 36.18 282.699 27.723 272.243 C 19.285 261.787 12.766 250.995 8.397 239.715 C 4.019 228.438 1.801 216.669 1.954 204.26 L 1.865 134.562 L 0.002 60.371 C -0.005 60.369 0.011 60.371 0.002 60.371 L 89.249 32.598 L 176.464 4.004 C 200.122 11.382 243.515 25.387 280.986 37.546 C 318.463 49.714 354.329 60.371 354.329 60.371" style="fill: rgb(27, 53, 80); stroke-width: 1; transform-origin: 679.371px 183.366px;"/>
  <path class="accent" d="M 177.161 41.976 L 46.623 83.372 L 46.623 202.947 C 46.623 246.635 77.707 285.732 130.546 308.729 L 177.161 329.42 L 223.782 308.729 C 276.624 285.732 307.705 246.635 307.705 202.947 L 307.705 83.372 L 177.161 41.976 Z" style="fill: rgb(231, 84, 35); stroke-width: 1; transform-origin: 679.371px 183.366px;"/>
  <rect class="white" style="fill: rgb(255, 255, 255); stroke-width: 1; transform-origin: 679.371px 183.366px;" x="105.678" y="133.959" width="142.977" height="87.383" rx="6"/>
  <path class="white" d="M 149.196 133.959 L 149.196 117.863 C 149.196 101.932 172.508 91.972 191.156 99.939 C 199.806 103.633 205.139 110.467 205.139 117.863 L 205.139 133.959 L 223.782 133.959 L 223.782 117.863 C 223.782 99.465 202.028 83.372 177.161 83.372 C 152.297 83.372 130.546 99.465 130.546 117.863 L 130.546 133.959 L 149.196 133.959 Z" style="fill: rgb(255, 255, 255); stroke-width: 1; transform-origin: 679.371px 183.366px;"/>
  <circle class="primary" cx="57" cy="74.514" r="5" style="fill: rgb(27, 53, 80); stroke-width: 1; transform-origin: 218.578px 78px;" transform="matrix(3.108126, 0, 0, 2.299562, 458.646301, 106.645683)"/>
  <rect class="primary" style="fill: rgb(27, 53, 80); stroke-width: 1; transform-origin: 679.371px 183.366px;" x="170.95" y="184.55" width="12.43" height="18.397" rx="1"/>
</svg>